<?xml version="1.0" encoding="UTF-8" standalone="no"?>
<!-- Generator: Adobe Illustrator 18.0.0, SVG Export Plug-In . SVG Version: 6.00 Build 0)  -->

<svg
   xmlns:dc="http://purl.org/dc/elements/1.1/"
   xmlns:cc="http://creativecommons.org/ns#"
   xmlns:rdf="http://www.w3.org/1999/02/22-rdf-syntax-ns#"
   xmlns:svg="http://www.w3.org/2000/svg"
   xmlns="http://www.w3.org/2000/svg"
   xmlns:sodipodi="http://sodipodi.sourceforge.net/DTD/sodipodi-0.dtd"
   xmlns:inkscape="http://www.inkscape.org/namespaces/inkscape"
   version="1.1"
   id="Layer_1"
   x="0px"
   y="0px"
   viewBox="0 0 744.09449 1052.3622"
   enable-background="new 0 0 612 792"
   xml:space="preserve"
   inkscape:version="0.91 r13725"
   sodipodi:docname="round-big-logo.svg"
   width="210mm"
   height="297mm"><title
     id="title3428">LCD Token</title><metadata
     id="metadata3407"><rdf:RDF><cc:Work
         rdf:about=""><dc:format>image/svg+xml</dc:format><dc:type
           rdf:resource="http://purl.org/dc/dcmitype/StillImage" /><dc:title>LCD Token</dc:title><cc:license
           rdf:resource="http://artlibre.org/licence/lal" /></cc:Work><cc:License
         rdf:about="http://artlibre.org/licence/lal"><cc:permits
           rdf:resource="http://creativecommons.org/ns#Reproduction" /><cc:permits
           rdf:resource="http://creativecommons.org/ns#Distribution" /><cc:permits
           rdf:resource="http://creativecommons.org/ns#DerivativeWorks" /><cc:requires
           rdf:resource="http://creativecommons.org/ns#ShareAlike" /><cc:requires
           rdf:resource="http://creativecommons.org/ns#Notice" /><cc:requires
           rdf:resource="http://creativecommons.org/ns#Attribution" /></cc:License></rdf:RDF></metadata><defs
     id="defs3405" /><sodipodi:namedview
     pagecolor="#ffffff"
     bordercolor="#666666"
     borderopacity="1"
     objecttolerance="10"
     gridtolerance="10"
     guidetolerance="10"
     inkscape:pageopacity="0"
     inkscape:pageshadow="2"
     inkscape:window-width="1440"
     inkscape:window-height="836"
     id="namedview3403"
     showgrid="false"
     inkscape:zoom="1.520202"
     inkscape:cx="208.88832"
     inkscape:cy="478.79428"
     inkscape:window-x="0"
     inkscape:window-y="27"
     inkscape:window-maximized="1"
     inkscape:current-layer="Layer_1"
     units="mm"
     showguides="true"
     inkscape:guide-bbox="true" /><g
     id="g3515"
     transform="translate(186.81119,382.64305)"><circle
       r="106.29921"
       cy="143.53806"
       cx="185.23605"
       id="path3430"
       style="fill:none;fill-opacity:0.28658537;stroke:#000000" /><circle
       style="fill:none;fill-opacity:0.28658537;stroke:#666666;stroke-width:0.94456637"
       id="circle3467"
       cx="185.23605"
       cy="143.53806"
       r="100.40666" /></g><g
     id="g3477"
     style="fill:#333333"
     transform="matrix(0.93940601,0,0,0.93940601,487.06483,419.7117)"><g
       style="fill:#333333"
       transform="matrix(0.19414575,0,0,0.19414575,-157.54897,-14.092986)"
       id="g3432"><polygon
         points="77.2,64.4 77.2,267.3 153.4,267.3 153.4,307.6 26.4,307.6 26.4,64.4 "
         id="polygon3337"
         style="fill:#333333"
         transform="translate(0,260.3622)" /><path
         d="m 173.2,446.5622 c 0,-64.2 0,-125.7 83.8,-125.7 51.8,0 72.9,28.7 70.9,80.8 l -49.8,0 c 0,-32.2 -5.8,-44.4 -20.8,-44.4 -28.7,0 -32.3,26.9 -32.3,89.4 0,62.5 3.8,89.1 32.3,89.1 23.6,0 22.6,-30.2 23.4,-49.5 l 50.3,0 c 0,65 -25.9,85.8 -73.4,85.8 -84.4,0 -84.4,-62 -84.4,-125.5"
         id="path3339"
         inkscape:connector-curvature="0"
         style="fill:#333333" /><path
         d="m 414.7,530.6622 24.6,0 c 31,0 37.1,-23.4 37.1,-84.3 0,-44.7 0,-84.3 -35.3,-84.3 l -26.2,0 0,168.6 -0.2,0 z m -50.8,-205.7 84.8,0 c 66.8,0 79.2,44.4 79.2,120.4 0,37.3 5.8,122.9 -81.3,122.9 l -82.8,0 0,-243.3 z"
         id="path3341"
         inkscape:connector-curvature="0"
         style="fill:#333333" /><rect
         x="26.9"
         y="602.06219"
         width="126.7"
         height="39.599998"
         id="rect3343"
         style="fill:#333333" /><rect
         x="362.60001"
         y="602.06219"
         width="126.7"
         height="39.599998"
         id="rect3345"
         style="fill:#333333" /><rect
         x="194.8"
         y="602.06219"
         width="126.7"
         height="39.599998"
         id="rect3347"
         style="fill:#333333" /><polygon
         points="20.3,531.6 20.3,460 29.5,460 29.5,523.5 55.6,523.5 55.6,531.4 20.3,531.4 "
         id="polygon3349"
         style="fill:#333333"
         transform="translate(0,260.3622)" /><path
         d="m 86.1,728.7622 0,0 -11.4,38.1 22.9,0 -11.5,-38.1 z m -5.6,-8.4 11.7,0 23.4,71.6 -10.2,0 -5.1,-17 -27.9,0 -5.3,17 -9.1,0 22.5,-71.6 z"
         id="path3351"
         inkscape:connector-curvature="0"
         style="fill:#333333" /><path
         d="m 134.8,784.0622 13,0 c 9.7,0 13.2,-6.9 13.2,-12.2 0,-11.4 -7.1,-13.5 -16.3,-13.5 l -9.6,0 0,25.6 -0.3,0 z m 0,-33.5 13.2,0 c 7.1,0 10.7,-4.6 10.7,-11.4 0,-5.8 -3.3,-10.7 -10.9,-10.7 l -13,0 0,22.1 z m -9.1,41.4 0,-71.6 23.4,0 c 9.9,0 13.2,3.3 16,7.4 2.5,3.8 2.8,8.1 2.8,9.4 0,8.9 -3,14.7 -12.2,17 l 0,0.5 c 10.2,1.3 14.7,7.4 14.7,17 0,18.3 -13.5,20.1 -21.6,20.1 l -23.1,0 0,0.2 z"
         id="path3353"
         inkscape:connector-curvature="0"
         style="fill:#333333" /><path
         d="m 220.9,766.0622 0,-24.1 c 0,-15 -10.4,-15.5 -13.2,-15.5 -2.8,0 -13.2,0.5 -13.2,15.5 l 0,24.1 c 0,15.7 4.6,19.6 13.2,19.6 8.7,0.2 13.2,-3.9 13.2,-19.6 m -35.8,-0.3 0,-23.4 c 0,-14.2 7.4,-23.4 22.6,-23.4 15.2,0 22.6,9.1 22.6,23.4 l 0,23.4 c 0,19.8 -7.4,27.7 -22.6,27.7 -15.2,0 -22.6,-7.8 -22.6,-27.7"
         id="path3355"
         inkscape:connector-curvature="0"
         style="fill:#333333" /><path
         d="m 255,751.0622 13.7,0 c 6.6,0 9.6,-5.6 9.6,-11.9 0,-5.1 -2.5,-10.9 -9.6,-10.9 l -13.7,0 0,22.8 z m 0,7.9 0,32.8 -9.1,0 0,-71.6 24.6,0 c 12.7,0 17,8.9 17,17.8 0,8.4 -4.6,15 -13,16.3 l 0,0.3 c 8.1,1.3 11.2,4.1 11.7,18.5 0,3 1,14.2 2.5,18.8 l -9.4,0 c -2.5,-4.8 -2,-14.2 -2.8,-23.9 -0.8,-8.6 -7.6,-9.1 -10.9,-9.1 l -10.6,0 0,0.1 z"
         id="path3357"
         inkscape:connector-curvature="0"
         style="fill:#333333" /><path
         d="m 322.8,728.7622 0,0 -11.4,38.1 22.9,0 -11.5,-38.1 z m -5.6,-8.4 11.7,0 23.4,71.6 -10.2,0 -5.1,-17 -27.7,0 -5.3,17 -9.1,0 22.3,-71.6 z"
         id="path3359"
         inkscape:connector-curvature="0"
         style="fill:#333333" /><polygon
         points="347.6,467.9 347.6,460 394.4,460 394.4,467.9 375.6,467.9 375.6,531.4 366.4,531.4 366.4,467.9 "
         id="polygon3361"
         style="fill:#333333"
         transform="translate(0,260.3622)" /><path
         d="m 437.8,699.0622 -13,14 -6.6,0 8.9,-14 10.7,0 z m 1.3,67 0,-24.1 c 0,-15 -10.4,-15.5 -13.2,-15.5 -2.8,0 -13.2,0.5 -13.2,15.5 l 0,24.1 c 0,15.7 4.6,19.6 13.2,19.6 8.6,0.2 13.2,-3.9 13.2,-19.6 m -35.6,-0.3 0,-23.4 c 0,-14.2 7.4,-23.4 22.6,-23.4 15.2,0 22.6,9.1 22.6,23.4 l 0,23.4 c 0,19.8 -7.4,27.7 -22.6,27.7 -15.2,0 -22.6,-7.8 -22.6,-27.7"
         id="path3363"
         inkscape:connector-curvature="0"
         style="fill:#333333" /><path
         d="m 473.1,751.0622 13.7,0 c 6.6,0 9.7,-5.6 9.7,-11.9 0,-5.1 -2.5,-10.9 -9.7,-10.9 l -13.7,0 0,22.8 z m 0,7.9 0,32.8 -9.1,0 0,-71.6 24.6,0 c 12.7,0 17,8.9 17,17.8 0,8.4 -4.6,15 -13,16.3 l 0,0.3 c 8.1,1.3 11.2,4.1 11.7,18.5 0,3 1,14.2 2.5,18.8 l -9.4,0 c -2.5,-4.8 -2,-14.2 -2.8,-23.9 -0.8,-8.6 -7.6,-9.1 -10.7,-9.1 l -10.9,0 0,0.1 z"
         id="path3365"
         inkscape:connector-curvature="0"
         style="fill:#333333" /><rect
         x="520.59998"
         y="720.36218"
         width="9.1000004"
         height="71.599998"
         id="rect3367"
         style="fill:#333333" /><path
         d="m 582.3,766.0622 0,-24.1 c 0,-15 -10.4,-15.5 -13.2,-15.5 -2.8,0 -13.2,0.5 -13.2,15.5 l 0,24.1 c 0,15.7 4.6,19.6 13.2,19.6 8.6,0.2 13.2,-3.9 13.2,-19.6 m -35.8,-0.3 0,-23.4 c 0,-14.2 7.4,-23.4 22.6,-23.4 15.2,0 22.6,9.1 22.6,23.4 l 0,23.4 c 0,19.8 -7.4,27.7 -22.6,27.7 -15.3,0 -22.6,-7.8 -22.6,-27.7"
         id="path3369"
         inkscape:connector-curvature="0"
         style="fill:#333333" /><path
         d="m 29.7,883.1622 8.6,0 c 12.7,0 17.3,-4.8 17.3,-21.3 l 0,-14.5 c 0,-14.5 -4.6,-19.8 -14,-19.8 l -11.9,0 0,55.6 z m -9.1,-63.8 22.1,0 c 9.1,0 15.7,3.3 19.3,10.9 2.8,6.1 3,20.3 3,22.6 0,15.2 -1.3,24.1 -4.3,28.7 -3.8,6.1 -11.2,9.1 -23.6,9.1 l -16.5,0 0,-71.3 z"
         id="path3371"
         inkscape:connector-curvature="0"
         style="fill:#333333" /><polygon
         points="81,559 117.8,559 117.8,566.9 90.1,566.9 90.1,589.8 115.8,589.8 115.8,597.6 90.1,597.6 90.1,622.5 118.6,622.5 118.6,630.4 81,630.4 81,630.6 "
         id="polygon3373"
         style="fill:#333333"
         transform="translate(0,260.3622)" /><path
         d="m 183.9,839.1622 c 0,-4.1 -0.3,-8.1 -2,-10.4 -1.8,-2.3 -6.1,-3 -8.1,-3 -7.6,0 -10.4,4.6 -10.7,5.6 -0.3,0.8 -2,2.5 -2,15 l 0,19 c 0,17.5 5.8,19.6 12.7,19.6 2.8,0 11.2,-1 11.2,-15 l 9.4,0 c 0.5,22.6 -15.5,22.6 -20.3,22.6 -8.9,0 -22.6,-0.5 -22.6,-28.4 l 0,-20.3 c 0,-20.3 8.9,-25.9 23.1,-25.9 14.2,0 19.6,7.4 18.8,21.1 l -9.4,0 0,0.1 z"
         id="path3375"
         inkscape:connector-curvature="0"
         style="fill:#333333" /><path
         d="m 216.4,850.1622 13.7,0 c 6.6,0 9.7,-5.6 9.7,-11.9 0,-5.1 -2.5,-10.9 -9.7,-10.9 l -13.7,0 0,22.8 z m 0,7.8 0,32.8 -9.1,0 0,-71.6 24.6,0 c 12.7,0 17,8.9 17,17.8 0,8.4 -4.6,15 -13,16.3 l 0,0.3 c 8.1,1.3 11.2,4.1 11.7,18.5 0,3 1,14.2 2.5,18.8 l -9.4,0 c -2.5,-4.8 -2,-14.2 -2.8,-23.9 -0.8,-8.6 -7.6,-9.1 -10.7,-9.1 l -10.9,0 0,0.1 z"
         id="path3377"
         inkscape:connector-curvature="0"
         style="fill:#333333" /><rect
         x="263.79999"
         y="819.36218"
         width="9.1000004"
         height="71.599998"
         id="rect3379"
         style="fill:#333333" /><path
         d="m 311.8,827.7622 0,0 -11.4,38.1 22.9,0 -11.5,-38.1 z m -5.5,-8.4 11.7,0 23.4,71.6 -10.2,0 -5.1,-17 -27.7,0 -5.3,17 -9.1,0 22.3,-71.6 z"
         id="path3381"
         inkscape:connector-curvature="0"
         style="fill:#333333" /><path
         d="m 382.2,839.1622 c 0,-4.1 -0.3,-8.1 -2,-10.4 -1.8,-2.3 -6.1,-3 -8.1,-3 -7.6,0 -10.4,4.6 -10.9,5.6 -0.3,0.8 -2,2.5 -2,15 l 0,19 c 0,17.5 5.8,19.6 12.7,19.6 2.8,0 11.2,-1 11.2,-15 l 9.4,0 c 0.5,22.1 -14.7,22.6 -19.8,22.6 l -3.6,4.6 0.3,0.3 c 0.8,-0.3 2,-0.5 3,-0.5 4.6,0 8.1,2.8 8.1,7.6 0,6.9 -6.3,9.1 -11.4,9.1 -3.6,0 -7.1,-1 -9.9,-2.3 l 1.8,-4.1 c 2.3,0.8 4.1,1.5 6.3,1.5 2.5,0 5.6,-1 5.6,-4.1 0,-2.8 -2.3,-4.1 -4.8,-4.1 -1.3,0 -2.5,0.5 -3.8,0.8 l -1.8,-1.8 5.3,-7.4 c -8.4,-0.5 -18.3,-4.6 -18.3,-28.2 l 0,-20.3 c 0,-20.3 8.9,-25.9 23.1,-25.9 14.2,0 19.6,7.4 18.8,21.1 l -9.1,0 0,0.3 z"
         id="path3383"
         inkscape:connector-curvature="0"
         style="fill:#333333" /><path
         d="m 427.4,827.7622 0,0 -11.4,38.1 22.9,0 -11.5,-38.1 z m 17.5,-26.9 c -0.3,2.8 -1.3,5.6 -3,7.6 -1.8,2 -4.1,3.3 -7.1,3.3 -2.3,0 -4.6,-1 -7.1,-1.8 -2.5,-1 -4.8,-1.8 -7.1,-1.8 -2.3,0 -4.3,2.3 -4.6,4.6 l -4.6,0 c 0.5,-6.1 3.8,-10.7 10.4,-10.7 2.8,0 5.1,1 7.4,1.8 2.3,1 4.3,1.8 5.8,1.8 3,0 4.8,-1.3 5.1,-4.6 l 4.8,0 0,-0.2 z m -23.1,18.5 11.7,0 23.4,71.6 -10.2,0 -5.1,-17 -27.7,0 -5.3,17 -9.1,0 22.3,-71.6 z"
         id="path3385"
         inkscape:connector-curvature="0"
         style="fill:#333333" /><path
         d="m 501.5,865.0622 0,-24.1 c 0,-15 -10.4,-15.5 -13.2,-15.5 -2.8,0 -13.2,0.5 -13.2,15.5 l 0,24.1 c 0,15.7 4.6,19.6 13.2,19.6 8.7,0.2 13.2,-3.8 13.2,-19.6 m -35.5,-0.2 0,-23.4 c 0,-14.2 7.4,-23.4 22.6,-23.4 15.2,0 22.6,9.1 22.6,23.4 l 0,23.4 c 0,19.8 -7.4,27.7 -22.6,27.7 -15.3,0 -22.6,-7.9 -22.6,-27.7"
         id="path3387"
         inkscape:connector-curvature="0"
         style="fill:#333333" /><path
         d="m 29.7,982.1622 8.6,0 c 12.7,0 17.3,-4.8 17.3,-21.3 l 0,-14.5 c 0,-14.5 -4.6,-19.8 -14,-19.8 l -11.9,0 0,55.6 z m -9.1,-63.7 22.1,0 c 9.1,0 15.7,3.3 19.3,10.9 2.8,6.1 3,20.3 3,22.6 0,15.2 -1.3,24.1 -4.3,28.7 -3.8,6.1 -11.2,9.1 -23.6,9.1 l -16.5,0 0,-71.3 z"
         id="path3389"
         inkscape:connector-curvature="0"
         style="fill:#333333" /><rect
         x="82"
         y="918.46216"
         width="9.1000004"
         height="71.599998"
         id="rect3391"
         style="fill:#333333" /><path
         d="m 142.7,937.7622 c 0,-8.4 -3.6,-13 -12.7,-13 -2.8,0 -13.2,0.5 -13.2,15.5 l 0,24.1 c 0,15.7 4.6,19.6 13.2,19.6 6.6,0 10.9,-1.8 12.7,-3 l 0,-21.3 -13.2,0 0,-7.9 22.3,0 0,34.8 c -5.8,3 -12.7,5.3 -21.8,5.3 -15.2,0 -22.6,-7.9 -22.6,-27.7 l 0,-23.4 c 0,-14.2 7.4,-23.4 22.6,-23.4 15.5,0 22.9,5.6 22.1,20.6 l -9.4,0 0,-0.2 z"
         id="path3393"
         inkscape:connector-curvature="0"
         style="fill:#333333" /><rect
         x="170.10001"
         y="918.46216"
         width="9.1000004"
         height="71.599998"
         id="rect3395"
         style="fill:#333333" /><polygon
         points="189.9,665.9 189.9,658.1 236.7,658.1 236.7,665.9 217.9,665.9 217.9,729.4 208.7,729.4 208.7,665.9 "
         id="polygon3397"
         style="fill:#333333"
         transform="translate(0,260.3622)" /><path
         d="m 260.5,927.0622 0,0 -11.4,38.1 22.9,0 -11.5,-38.1 z m -5.5,-8.6 11.7,0 23.4,71.6 -10.2,0 -5.1,-17 -27.7,0 -5.3,17 -9.1,0 22.3,-71.6 z"
         id="path3399"
         inkscape:connector-curvature="0"
         style="fill:#333333" /><polygon
         points="299.1,729.7 299.1,658.1 308.3,658.1 308.3,721.6 334.4,721.6 334.4,729.4 299.1,729.4 "
         id="polygon3401"
         style="fill:#333333"
         transform="translate(0,260.3622)" /></g><text
       transform="matrix(0,-1,1,0,0,0)"
       sodipodi:linespacing="125%"
       id="text3469"
       y="-160.16586"
       x="-178.32875"
       style="font-style:normal;font-variant:normal;font-weight:bold;font-stretch:normal;font-size:46.25692749px;line-height:125%;font-family:'Liberation Sans';-inkscape-font-specification:'Liberation Sans, Bold';text-align:start;letter-spacing:0px;word-spacing:0px;writing-mode:lr-tb;text-anchor:start;fill:#333333;fill-opacity:1;stroke:none;stroke-width:1px;stroke-linecap:butt;stroke-linejoin:miter;stroke-opacity:1"
       xml:space="preserve"><tspan
         y="-160.16586"
         x="-178.32875"
         id="tspan3471"
         sodipodi:role="line">Token</tspan></text>
</g></svg>